<svg width="288" height="26" viewBox="0 0 288 26" fill="none" xmlns="http://www.w3.org/2000/svg">
<path d="M28.52 25L28.45 0.499998H23.795L14.765 15.725L5.595 0.499998H0.905V25H6.225V10.615L13.4 22.41H15.955L23.165 10.3L23.2 25H28.52ZM58.2377 25H64.1877L53.2327 0.499998H47.6327L36.7127 25H42.5227L44.6927 19.75H56.0677L58.2377 25ZM46.5127 15.445L50.3977 6.065L54.2827 15.445H46.5127ZM89.1996 0.499998V15.375L77.0196 0.499998H72.3296V25H77.9296V10.125L90.1446 25H94.7996V0.499998H89.1996ZM118.061 25.42C125.761 25.42 131.466 20.065 131.466 12.75C131.466 5.435 125.761 0.0799996 118.061 0.0799996C110.326 0.0799996 104.656 5.47 104.656 12.75C104.656 20.03 110.326 25.42 118.061 25.42ZM118.061 20.59C113.686 20.59 110.396 17.405 110.396 12.75C110.396 8.095 113.686 4.91 118.061 4.91C122.436 4.91 125.726 8.095 125.726 12.75C125.726 17.405 122.436 20.59 118.061 20.59Z" fill="#D6D6D6"/>
<path d="M168.942 25L168.872 0.499998H164.217L155.187 15.725L146.017 0.499998H141.327V25H146.647V10.615L153.822 22.41H156.377L163.587 10.3L163.622 25H168.942ZM185.99 20.45V14.78H197.365V10.37H185.99V5.05H198.87V0.499998H180.355V25H199.325V20.45H185.99ZM214.512 25H220.182V5.12H228.022V0.499998H206.672V5.12H214.512V25ZM242.307 20.45V14.78H253.682V10.37H242.307V5.05H255.187V0.499998H236.672V25H255.642V20.45H242.307ZM287.454 25L281.959 17.125C285.144 15.76 286.999 13.065 286.999 9.39C286.999 3.895 282.904 0.499998 276.359 0.499998H265.754V25H271.424V18.175H276.359H276.639L281.364 25H287.454ZM281.259 9.39C281.259 12.05 279.509 13.66 276.044 13.66H271.424V5.12H276.044C279.509 5.12 281.259 6.695 281.259 9.39Z" fill="#D63535"/>
</svg>
